<svg xmlns="http://www.w3.org/2000/svg" width="43.657" height="38.149" viewBox="0 0 43.657 38.149">
  <g id="app_logo_ar" transform="translate(-197.5 -69)">
    <g id="Group_736" data-name="Group 736" transform="translate(217.701 69)">
      <g id="Group_734" data-name="Group 734" transform="translate(0 0)">
        <path id="Path_234" data-name="Path 234" d="M-6668.431-456.855h5.817v10.9s-.947,7.481-7.586,4.46c-.506-.23-.7-.618-1.289-.986.05.051-2.705,3.26-6.193,0,.051,0,.231,23.507.231,23.507h-7.052v-37.882l7.052-.266v9.44s1.277,1.61,1.832,0c.057,0,0-9.44,0-9.44l5.615.266v9.173s1.216,1.562,1.841,0C-6668.129-447.7-6668.431-456.855-6668.431-456.855Z" transform="translate(6684.502 457.122)" fill="#9ccbab"/>
        <path id="Path_235" data-name="Path 235" d="M-6555-448.542s1.366-.323,1.6,1.5c0,.02.16,8.039.16,8.039s.066,10.159-8.232,7.843c-.033-.033-1.939-.251-1.907-1.178,0,0,.014,1.707-3.239,1.178,0,.033-2.059-.331-2.158-.629.032-.066,0,21.113,0,21.113h-1.262l.121-23.552s3.158,2.835,6.287,0c-.095.095,6.856,4.915,8.628-3.686C-6555.03-437.916-6555-448.542-6555-448.542Z" transform="translate(6576.694 448.826)" fill="#3f6a51"/>
      </g>
    </g>
    <path id="Subtraction_11" data-name="Subtraction 11" d="M.393,33.02h0c-.177,0-.309-.126-.393-.376,1.938-1.356,6.422-10.627,8.923-16.032,1.522-3.289,3.142-6.947,4.444-10.035a46.46,46.46,0,0,0,1.9-4.891c0-.533-.68-1.305-1.485-1.686A2.572,2.572,0,0,1,15.3.664a1.888,1.888,0,0,1,.78,1.23,50.757,50.757,0,0,1-2.064,5.273c-1.42,3.351-3.15,7.235-4.747,10.654C7.256,22.128,5.436,25.749,4,28.293,2.239,31.43,1.024,33.02.393,33.02Z" transform="translate(198.031 71.459)" fill="#3f6a51"/>
    <path id="Path_237" data-name="Path 237" d="M-6103.224-398.5c-.7,1.389-14.242,27.789-12.853,32.3.74,2.407,5.231-6.239,9.285-15.043,3.512-7.626,6.693-15.385,6.693-15.872C-6100.1-398.152-6102.53-399.889-6103.224-398.5Z" transform="translate(6313.677 469.854)" fill="#9ccbab"/>
    <g id="Group_738" data-name="Group 738" transform="translate(197.5 71.47)">
      <ellipse id="Ellipse_99" data-name="Ellipse 99" cx="3.883" cy="3.883" rx="3.883" ry="3.883" transform="translate(0 0)" fill="#9ccbab"/>
      <g id="Group_737" data-name="Group 737" transform="translate(0.9 0.9)">
        <path id="Subtraction_10" data-name="Subtraction 10" d="M2.983,6.867A3.875,3.875,0,0,1,0,5.469,3.883,3.883,0,0,0,5.47,0,3.883,3.883,0,0,1,2.983,6.867Z" fill="#3f6a51"/>
      </g>
    </g>
    <g id="Group_739" data-name="Group 739" transform="translate(205.267 96.712)">
      <path id="Path_244" data-name="Path 244" d="M3.883,0A3.883,3.883,0,1,1,0,3.883,3.883,3.883,0,0,1,3.883,0Z" transform="translate(0 0)" fill="#9ccbab"/>
      <g id="Group_737-2" data-name="Group 737" transform="translate(0.9 0.9)">
        <path id="Subtraction_10-2" data-name="Subtraction 10" d="M2.983,6.867A3.875,3.875,0,0,1,0,5.469,3.883,3.883,0,0,0,5.47,0,3.883,3.883,0,0,1,2.983,6.867Z" fill="#3f6a51"/>
      </g>
    </g>
  </g>
</svg>
