<svg xmlns="http://www.w3.org/2000/svg" width="15" height="15" viewBox="0 0 15 15">
  <g id="phone_price_icon" transform="translate(-2.25 -2.25)">
    <path id="Path_62" data-name="Path 62" d="M14.657,2.25H10.707a.463.463,0,0,0-.327.137L2.521,10.279a.928.928,0,0,0,0,1.31L6.246,15.35a.994.994,0,0,0,1.45.07l7.749-7.765a.463.463,0,0,0,.137-.328V3.176A.926.926,0,0,0,14.657,2.25ZM13.123,5.843a1.029,1.029,0,1,1,.912-.913A1.028,1.028,0,0,1,13.123,5.843Z"/>
    <path id="Path_63" data-name="Path 63" d="M22.512,5.646v3.8a.459.459,0,0,1-.14.328l-8.823,8.663.3.294a.957.957,0,0,0,1.334,0l8.006-7.895a.459.459,0,0,0,.14-.328V6.562A.932.932,0,0,0,22.512,5.646Z" transform="translate(-6.079 -1.752)"/>
  </g>
</svg>
